<svg width="120" height="102" viewBox="0 0 120 102" fill="none" xmlns="http://www.w3.org/2000/svg">
<path d="M57.55 13.7C65.8167 13.7 72.35 16.8833 77.15 23.25C81.9833 29.5833 84.4 38.8333 84.4 51C84.4 63.1 82 72.3167 77.2 78.65C72.4333 84.95 65.8667 88.1 57.5 88.1C49.1333 88.1 42.55 84.95 37.75 78.65C32.9833 72.35 30.6 63.1667 30.6 51.1C30.6 42.9667 31.7 36.1333 33.9 30.6C36.1 25.0333 39.2167 20.8333 43.25 18C47.2833 15.1333 52.05 13.7 57.55 13.7ZM57.55 77.95C62.25 77.95 65.75 75.8667 68.05 71.7C70.35 67.5333 71.5 60.65 71.5 51.05C71.5 41.25 70.3333 34.2167 68 29.95C65.6667 25.6833 62.1667 23.55 57.5 23.55C52.8333 23.55 49.3 25.7 46.9 30C44.5333 34.3 43.35 41.3167 43.35 51.05C43.35 60.6167 44.5333 67.5 46.9 71.7C49.3 75.8667 52.85 77.95 57.55 77.95Z" fill="#F2F2F2"/>
<path d="M106.838 87V31.3H93.4383V24.05C97.6716 24.05 101.022 23.7 103.488 23C105.988 22.2667 107.805 21.2 108.938 19.8C110.105 18.4 110.772 16.7 110.938 14.7H119.238V87H106.838Z" fill="#F2F2F2"/>
<path d="M0 0H59V102H0V0Z" fill="white"/>
</svg>
