<svg width="120" height="102" viewBox="0 0 120 102" fill="none" xmlns="http://www.w3.org/2000/svg">
<path d="M28.55 13.7C36.8167 13.7 43.35 16.8833 48.15 23.25C52.9833 29.5833 55.4 38.8333 55.4 51C55.4 63.1 53 72.3167 48.2 78.65C43.4333 84.95 36.8667 88.1 28.5 88.1C20.1333 88.1 13.55 84.95 8.75 78.65C3.98333 72.35 1.6 63.1667 1.6 51.1C1.6 42.9667 2.7 36.1333 4.9 30.6C7.1 25.0333 10.2167 20.8333 14.25 18C18.2833 15.1333 23.05 13.7 28.55 13.7ZM28.55 77.95C33.25 77.95 36.75 75.8667 39.05 71.7C41.35 67.5333 42.5 60.65 42.5 51.05C42.5 41.25 41.3333 34.2167 39 29.95C36.6667 25.6833 33.1667 23.55 28.5 23.55C23.8333 23.55 20.3 25.7 17.9 30C15.5333 34.3 14.35 41.3167 14.35 51.05C14.35 60.6167 15.5333 67.5 17.9 71.7C20.3 75.8667 23.85 77.95 28.55 77.95Z" fill="#F2F2F2"/>
<path d="M64.75 36.4C64.75 31.4667 65.9333 27.3167 68.3 23.95C70.6667 20.55 73.8333 18 77.8 16.3C81.8 14.5667 86.2333 13.7 91.1 13.7C96.3333 13.7 100.967 14.4167 105 15.85C109.067 17.25 112.25 19.3667 114.55 22.2C116.883 25.0333 118.05 28.55 118.05 32.75C118.05 36.3167 116.967 39.5 114.8 42.3C112.633 45.1 109.217 47.3 104.55 48.9C107.45 49.7 110.05 50.9 112.35 52.5C114.65 54.0667 116.467 56.0333 117.8 58.4C119.167 60.7667 119.85 63.55 119.85 66.75C119.85 70.1833 119.1 73.2333 117.6 75.9C116.133 78.5667 114.067 80.8167 111.4 82.65C108.767 84.45 105.683 85.8167 102.15 86.75C98.6167 87.65 94.8167 88.1 90.75 88.1C85.3167 88.0667 80.6333 87.1333 76.7 85.3C72.7667 83.4667 69.7 80.85 67.5 77.45C65.3333 74.05 64.2 70.0167 64.1 65.35H75.95C76.65 69.65 78.35 72.85 81.05 74.95C83.7833 77.0167 87.1 78.05 91 78.05C94.2333 78.05 97.0333 77.5667 99.4 76.6C101.767 75.6 103.583 74.2333 104.85 72.5C106.15 70.7667 106.8 68.75 106.8 66.45C106.8 64.0167 106.1 61.9333 104.7 60.2C103.333 58.4667 101.45 57.1333 99.05 56.2C96.65 55.2667 93.95 54.7667 90.95 54.7L84.25 54.5V44.6L90.45 44.35C93.3167 44.25 95.8333 43.7 98 42.7C100.2 41.7 101.917 40.3833 103.15 38.75C104.383 37.1167 105 35.2833 105 33.25C105 31.3833 104.417 29.7 103.25 28.2C102.117 26.7 100.5 25.5333 98.4 24.7C96.3 23.8333 93.8167 23.4 90.95 23.4C88.5167 23.4 86.2333 23.8333 84.1 24.7C81.9667 25.5667 80.2 26.9667 78.8 28.9C77.4333 30.8 76.6833 33.3 76.55 36.4H64.75Z" fill="#F2F2F2"/>
<path d="M0 0H30V102H0V0Z" fill="white"/>
</svg>
