<svg width="120" height="102" viewBox="0 0 120 102" fill="none" xmlns="http://www.w3.org/2000/svg">
<path d="M31.55 13.7C39.8167 13.7 46.35 16.8833 51.15 23.25C55.9833 29.5833 58.4 38.8333 58.4 51C58.4 63.1 56 72.3167 51.2 78.65C46.4333 84.95 39.8667 88.1 31.5 88.1C23.1333 88.1 16.55 84.95 11.75 78.65C6.98333 72.35 4.6 63.1667 4.6 51.1C4.6 42.9667 5.7 36.1333 7.9 30.6C10.1 25.0333 13.2167 20.8333 17.25 18C21.2833 15.1333 26.05 13.7 31.55 13.7ZM31.55 77.95C36.25 77.95 39.75 75.8667 42.05 71.7C44.35 67.5333 45.5 60.65 45.5 51.05C45.5 41.25 44.3333 34.2167 42 29.95C39.6667 25.6833 36.1667 23.55 31.5 23.55C26.8333 23.55 23.3 25.7 20.9 30C18.5333 34.3 17.35 41.3167 17.35 51.05C17.35 60.6167 18.5333 67.5 20.9 71.7C23.3 75.8667 26.85 77.95 31.55 77.95Z" fill="#F2F2F2"/>
<path d="M68.8883 87V77.15C68.8883 73.45 69.5716 70.2667 70.9383 67.6C72.3049 64.9 74.1216 62.55 76.3883 60.55C78.655 58.55 81.1383 56.7833 83.8383 55.25C86.5716 53.6833 89.2716 52.2167 91.9383 50.85C94.6383 49.45 97.1216 48.0167 99.3883 46.55C101.655 45.05 103.472 43.3833 104.838 41.55C106.238 39.7167 106.938 37.5333 106.938 35C106.938 31.7667 105.788 29.1333 103.488 27.1C101.222 25.0333 98.1383 24 94.2383 24C90.1049 24 86.6883 25.1833 83.9883 27.55C81.3216 29.9167 79.7383 33.25 79.2383 37.55H67.4383C67.5049 33.15 68.5549 29.15 70.5883 25.55C72.6216 21.95 75.6383 19.0833 79.6383 16.95C83.6383 14.7833 88.6216 13.7 94.5883 13.7C99.7549 13.7 104.205 14.6 107.938 16.4C111.705 18.1667 114.605 20.65 116.638 23.85C118.705 27.0167 119.738 30.7167 119.738 34.95C119.738 38.65 119.055 41.8167 117.688 44.45C116.355 47.0833 114.572 49.3667 112.338 51.3C110.138 53.2 107.705 54.8833 105.038 56.35C102.405 57.8167 99.7549 59.2 97.0883 60.5C94.4549 61.7667 92.0216 63.1 89.7883 64.5C87.5883 65.8667 85.805 67.4333 84.4383 69.2C83.1049 70.9667 82.4383 73.0833 82.4383 75.55V76.6H119.888V87H68.8883Z" fill="#F2F2F2"/>
<path d="M0 0H33V102H0V0Z" fill="white"/>
</svg>
